
<svg width="87px" height="57px" viewBox="0 0 87 57" version="1.1" xmlns="http://www.w3.org/2000/svg" xmlns:xlink="http://www.w3.org/1999/xlink">
    <g id="Page-1" stroke="none" stroke-width="1" fill="none" fill-rule="evenodd">
        <g id="Upload-(Logged-in)" transform="translate(-436.000000, -39.000000)">
            <g id="Logo" transform="translate(436.000000, 39.000000)">
                <g id="logo-2">
                    <polygon id="Path-3" fill="#FF0050" points="9.62962963 57 54.0237008 57 65 38.76 20.8307062 38.76"></polygon>
                    <polygon id="Path-1" fill="#F7EBEF" points="21.5025737 0 0 37.9451208 10.5611947 56.6539159 21.6764696 37.8869373 32.1121439 57 43.3333333 37.9683942"></polygon>
                    <polygon id="Path-2" fill="#FED7E3" points="43.5183652 38.76 65 38.76 43.5183652 0 21.6666667 0"></polygon>
                </g>
                <g id="logo-1" transform="translate(20.000000, 0.000000)">
                    <polygon id="Path-3" fill="#FF0050" points="9.57142857 57 55.615695 57 67 38.76 21.1888662 38.76"></polygon>
                    <polygon id="Path-1" fill="#FFFFFF" points="22.5599805 0 0 37.9451208 11.0805502 56.6539159 22.7424279 37.8869373 33.691285 57 45.4642857 37.9683942"></polygon>
                    <polygon id="Path-2" fill="#FED7E3" points="44.4619881 38.76 67 38.76 44.4619881 0 21.5357143 0"></polygon>
                </g>
            </g>
        </g>
    </g>
</svg>
